<svg xmlns="http://www.w3.org/2000/svg" width="742.95mm" height="1247.836mm" viewBox="0 0 742.95 1247.836"><rect width="100%" height="100%" fill="white"/>
<g id="앞판">
<g id="outline" fill="none" stroke="#111" stroke-width="0.35">
<path d="M95.25 25.4C91.319 35.125 93.197 52.402 72.799 72.799C62.044 83.554 35.889 95.25 25.4 95.25"><title>앞목선</title></path>
<path d="M95.25 25.4L191.343 64.244"><title>앞어깨선</title></path>
<path d="M191.343 64.244C184.707 80.66 190.5 135.065 190.5 152.772C190.5 175.549 191.778 205.833 207.562 224.238C218.725 237.252 238.422 244.475 257.175 244.475"><title>앞암홀</title></path>
<path d="M25.4 95.25L25.4 1206.5"><title>앞중심선</title></path>
<path d="M257.175 244.475L257.175 278.903"><title>앞옆선위</title></path>
<path d="M257.175 310.653C252.984 340.154 244.475 370.253 244.475 400.05C244.475 463.471 269.875 527.129 269.875 590.55C269.875 687.63 234.95 785.57 234.95 882.65C234.95 1015.424 309.245 1067.435 358.775 1190.625"><title>앞옆선</title></path>
<path d="M25.4 1206.5C100.161 1206.5 257.177 1251.584 358.775 1190.625"><title>앞밑단</title></path>
</g>
<g id="dart" fill="none" stroke="#111" stroke-width="0.35">
<path d="M257.175 278.903L111.125 278.903L257.175 310.653"><title>가슴다트</title></path>
<path d="M174.625 278.903L161.925 400.05L174.625 565.15L187.325 400.05L174.625 278.903"><title>앞허리다트</title></path>
</g>
<text x="25.4" y="15.24" font-size="7.62" font-family="sans-serif" fill="#444">앞판</text></g>
<g id="뒤판">
<g id="outline" fill="none" stroke="#111" stroke-width="0.35">
<path d="M641.35 25.4C642.596 28.776 651.609 35.706 654.82 37.33C666.272 43.12 668.147 50.8 717.55 50.8"><title>뒤목선</title></path>
<path d="M538.162 63.5C545.785 84.143 539.75 145.222 539.75 168.275C539.75 185.855 532.687 232.553 520.807 254.107C514.739 265.118 506.019 276.225 498.475 276.225"><title>뒤암홀</title></path>
<path d="M717.55 50.8C717.55 139.782 708.025 184.068 708.025 273.05C708.025 336.664 698.5 368.186 698.5 431.8"><title>뒤중심선</title></path>
<path d="M698.5 431.8L698.5 1200.15"><title>뒤중심선아래</title></path>
<path d="M641.35 25.4L538.162 63.5"><title>뒤어깨선</title></path>
<path d="M498.475 276.225C502.666 327.565 511.175 380.289 511.175 431.8C511.175 495.221 485.775 558.879 485.775 622.3C485.775 718.972 508 817.728 508 914.4C508 1033.496 441.325 1080.135 396.875 1190.625"><title>뒤옆선</title></path>
<path d="M698.5 1200.15C577.79 1200.15 517.585 1190.625 396.875 1190.625"><title>뒤밑단</title></path>
</g>
<g id="dart" fill="none" stroke="#111" stroke-width="0.35">
<path d="M577.85 273.05L565.15 431.8L577.85 571.5L590.55 431.8L577.85 273.05"><title>뒤허리다트</title></path>
</g>
<g id="mark" fill="none" stroke="#111" stroke-width="0.21">
<path d="M605.609 38.597L599.652 40.796"><title>뒤어깨이세</title></path>
</g>
<text x="396.875" y="15.24" font-size="7.62" font-family="sans-serif" fill="#444">뒤판</text></g></svg>