<svg xmlns="http://www.w3.org/2000/svg" width="1341.081mm" height="1244.6mm" viewBox="0 0 1341.081 1244.6">
<rect width="100%" height="100%" fill="white"/>
<g id="body · 앞판">
<g id="outline" fill="none" stroke="#111" stroke-width="0.35">
<path d="M95.25 25.4C91.271 35.105 93.197 52.402 72.799 72.799C62.044 83.554 35.889 95.25 25.4 95.25"><title>앞목선</title></path>
<path d="M95.25 25.4L189.773 64.154"><title>앞어깨선</title></path>
<path d="M189.773 64.154C182.811 81.133 190.5 137.552 190.5 155.902C190.5 179.093 193.671 209.631 210.032 228.118C222.823 242.571 244.797 250.825 265.906 250.825"><title>앞암홀</title></path>
<path d="M25.4 95.25L25.4 1193.8"><title>앞중심선</title></path>
<path d="M265.906 250.825L265.906 278.903"><title>앞옆선위</title></path>
<path d="M265.906 310.653C259.62 340.154 246.856 369.887 246.856 400.05C246.856 464.16 284.956 526.44 284.956 590.55C284.956 780.609 323.056 975.166 323.056 1165.225"><title>앞옆선</title></path>
<path d="M25.4 1193.8C174.912 1193.8 220.492 1226.764 323.056 1165.225"><title>앞밑단</title></path>
</g>
<g id="dart" fill="none" stroke="#111" stroke-width="0.35">
<path d="M265.906 278.903L111.125 278.903L265.906 310.653"><title>가슴다트</title></path>
<path d="M174.625 278.903L161.925 400.05L174.625 565.15L187.325 400.05L174.625 278.903"><title>앞허리다트</title></path>
</g>
<text x="25.4" y="15.24" font-size="7.62" font-family="sans-serif" fill="#444">body · 앞판 — 플랫 칼라 원피스 몸판</text>
</g>
<g id="body · 뒤판">
<g id="outline" fill="none" stroke="#111" stroke-width="0.35">
<path d="M582.612 25.4C583.876 28.77 592.871 35.706 596.083 37.33C607.534 43.12 609.41 50.8 658.812 50.8"><title>뒤목선</title></path>
<path d="M481.012 63.5C488.972 84.726 481.012 147.701 481.012 171.45C481.012 189.135 471.319 235.744 458.597 256.984C450.862 269.898 440.038 282.575 431.006 282.575"><title>뒤암홀</title></path>
<path d="M658.812 50.8C658.812 142.319 649.287 187.881 649.287 279.4C649.287 340.479 639.763 370.721 639.763 431.8"><title>뒤중심선</title></path>
<path d="M639.763 431.8L639.763 1219.2"><title>뒤중심선아래</title></path>
<path d="M582.612 25.4L481.012 63.5"><title>뒤어깨선</title></path>
<path d="M431.006 282.575C437.293 331.819 450.056 382.156 450.056 431.8C450.056 495.91 411.956 558.19 411.956 622.3C411.956 816.541 373.856 1015.434 373.856 1209.675"><title>뒤옆선</title></path>
<path d="M639.763 1219.2C533.332 1219.2 480.287 1209.675 373.856 1209.675"><title>뒤밑단</title></path>
</g>
<g id="dart" fill="none" stroke="#111" stroke-width="0.35">
<path d="M519.112 279.4L506.412 431.8L519.112 571.5L531.812 431.8L519.112 279.4"><title>뒤허리다트</title></path>
</g>
<g id="mark" fill="none" stroke="#111" stroke-width="0.21">
<path d="M546.938 38.778L540.993 41.007"><title>뒤어깨이세</title></path>
</g>
<text x="373.856" y="15.24" font-size="7.62" font-family="sans-serif" fill="#444">body · 뒤판 — 플랫 칼라 원피스 몸판</text>
</g>
<g id="sleeve">
<g id="outline" fill="none" stroke="#111" stroke-width="0.35">
<path d="M709.612 193.73C754.288 177.571 762.694 145.044 766.082 141.936C772.435 136.109 817.28 25.4 893.139 25.4"><title>뒤소매산</title></path>
<path d="M893.139 25.4C964.031 25.4 988.471 116.779 993.489 121.589C997.252 125.196 1011.552 189.726 1068.751 193.73"><title>앞소매산</title></path>
<path d="M709.612 193.73L722.312 327.025"><title>뒤옆선</title></path>
<path d="M1068.751 193.73L1056.051 327.025"><title>앞옆선</title></path>
<path d="M722.312 327.025C778.685 330.168 836.679 336.55 893.139 336.55C946.992 336.55 1002.29 330.168 1056.051 327.025"><title>소매부리</title></path>
</g>
<g id="construction" fill="none" stroke="#888" stroke-width="0.21" stroke-dasharray="1.4,1.0499999999999998">
<path d="M893.139 25.4L893.139 336.55"><title>소매중심선</title></path>
<path d="M709.612 193.73L1068.751 193.73"><title>소매통선</title></path>
<path d="M712.935 228.6L1065.429 228.6"><title>팔꿈치선</title></path>
<path d="M835.989 25.4L943.939 25.4"><title>소매산높이선</title></path>
<path d="M893.139 25.4L709.612 193.73"><title>뒤사선</title></path>
<path d="M893.139 25.4L1068.751 193.73"><title>앞사선</title></path>
<path d="M835.989 25.4L735.012 193.73"><title>뒤가이드</title></path>
<path d="M943.939 25.4L1030.651 193.73"><title>앞가이드</title></path>
<path d="M709.612 193.73L709.612 336.55"><title>뒤틀세로</title></path>
<path d="M1068.751 193.73L1068.751 336.55"><title>앞틀세로</title></path>
<path d="M709.612 336.55L1068.751 336.55"><title>밑단틀</title></path>
</g>
<g id="mark" fill="none" stroke="#111" stroke-width="0.21">
<path d="M712.935 228.6L719.285 228.6"><title>뒤팔꿈치표시</title></path>
<path d="M1065.429 228.6L1059.079 228.6"><title>앞팔꿈치표시</title></path>
</g>
<text x="709.612" y="15.24" font-size="7.62" font-family="sans-serif" fill="#444">sleeve — 소매 원형</text>
</g>
<g id="collar">
<g id="outline" fill="none" stroke="#111" stroke-width="0.35">
<path d="M1214.081 25.4C1214.081 54.329 1208.215 80.535 1193.526 105.457C1175.441 136.142 1151.688 159.985 1119.551 175.343"><title>목둘레선</title></path>
<path d="M1315.681 25.4C1315.681 72.015 1306.229 114.243 1282.56 154.402C1253.418 203.847 1215.143 242.266 1163.359 267.013"><title>외곽선</title></path>
<path d="M1119.551 175.343L1163.359 267.013"><title>앞끝</title></path>
</g>
<g id="construction" fill="none" stroke="#888" stroke-width="0.21" stroke-dasharray="1.4,1.0499999999999998">
<path d="M1226.781 25.4C1226.781 120.799 1211.103 145.667 1125.027 186.801"><title>스탠드선</title></path>
</g>
<g id="notch" fill="none" stroke="#111" stroke-width="0.35">
<path d="M1193.526 105.457L1282.56 154.402"><title>목옆점</title></path>
</g>
<g id="fold" fill="none" stroke="#111" stroke-width="0.35" stroke-dasharray="2.8,1.4">
<path d="M1214.081 25.4L1315.681 25.4"><title>뒤중심</title></path>
</g>
<text x="1119.551" y="15.24" font-size="7.62" font-family="sans-serif" fill="#444">collar — 플랫 칼라</text>
</g>
</svg>