<svg xmlns="http://www.w3.org/2000/svg" width="1558.645mm" height="784.225mm" viewBox="0 0 1558.645 784.225">
<rect width="100%" height="100%" fill="white"/>
<g id="body · 앞판">
<g id="outline" fill="none" stroke="#111" stroke-width="0.35">
<path d="M182.26 36.376C178.634 46.219 180.207 63.378 159.81 83.776C149.055 94.53 122.9 106.226 112.41 106.226"><title>앞목선</title></path>
<path d="M182.26 36.376L343.577 95.809"><title>앞어깨선</title></path>
<path d="M343.577 95.809C336.901 113.93 321.96 170.606 321.96 189.917C321.96 214.171 322.117 247.367 339.921 266.066C356.758 283.75 386.534 287.201 413.241 287.201"><title>앞암홀</title></path>
<path d="M112.41 106.226L112.41 738.051"><title>앞중심선</title></path>
<path d="M413.241 287.201L413.241 289.88"><title>앞옆선위</title></path>
<path d="M413.241 289.88C413.765 329.858 414.829 371.044 414.829 411.026C414.829 473.926 421.179 538.626 421.179 601.526C421.179 646.579 421.179 692.998 421.179 738.051"><title>앞옆선</title></path>
<path d="M112.41 738.051C235.918 738.051 297.671 738.051 421.179 738.051"><title>앞밑단</title></path>
<path d="M80.66 106.226L80.66 738.051"><title>낸단</title></path>
<path d="M80.66 738.051L112.41 738.051"><title>낸단밑단</title></path>
<path d="M120.719 25.625L76.269 45.31"><title>고지라인</title></path>
<path d="M76.269 45.31L25.4 236.165"><title>라펠끝선</title></path>
<path d="M25.4 236.165C17.534 281.187 80.66 390.722 80.66 436.426"><title>라펠외곽</title></path>
</g>
<g id="dart" fill="none" stroke="#111" stroke-width="0.35">
<path d="M413.241 289.88L198.135 289.88L413.241 289.88"><title>가슴다트</title></path>
</g>
<g id="mark" fill="none" stroke="#111" stroke-width="0.21">
<path d="M207.66 223.701C207.66 243.759 198.135 269.821 198.135 289.88C198.135 329.289 248.935 371.616 248.935 411.026C248.935 525.497 252.031 623.592 253.698 738.051"><title>앞사이바</title></path>
<path d="M156.86 506.276L296.56 499.926"><title>주머니입구</title></path>
<path d="M156.86 506.276L156.86 550.726L296.56 544.376L296.56 499.926"><title>후다</title></path>
<path d="M215.032 48.45C185.946 229.738 156.86 227.42 156.86 411.026C156.86 541.836 156.86 607.241 156.86 738.051"><title>미까시</title></path>
</g>
<g id="notch" fill="none" stroke="#111" stroke-width="0.35">
<path d="M112.41 436.426L80.66 436.426"><title>첫단추</title></path>
</g>
<g id="fold" fill="none" stroke="#111" stroke-width="0.35" stroke-dasharray="2.8,1.4">
<path d="M152.468 25.4L80.66 436.426"><title>라펠꺾임선</title></path>
</g>
<text x="25.4" y="15.24" font-size="7.62" font-family="sans-serif" fill="#444">body · 앞판 — 헌팅 자켓 몸판</text>
</g>
<g id="body · 뒤판">
<g id="outline" fill="none" stroke="#111" stroke-width="0.35">
<path d="M691.848 25.4C692.713 28.893 702.107 35.706 705.318 37.33C716.769 43.12 718.645 50.8 768.048 50.8"><title>뒤목선</title></path>
<path d="M518.81 68.262C524.973 93.142 548.973 159.679 548.973 186.531C548.973 206.556 546.04 262.513 528.767 284.594C515.42 301.657 492.914 307.975 479.916 307.975"><title>뒤암홀</title></path>
<path d="M768.048 50.8C768.048 152.46 759.316 203.14 759.316 304.8C759.316 355.68 752.173 380.92 752.173 431.8"><title>뒤중심선</title></path>
<path d="M752.173 431.8L752.173 758.825"><title>뒤중심선아래</title></path>
<path d="M691.848 25.4L518.81 68.262"><title>뒤어깨선</title></path>
<path d="M479.916 307.975C479.393 348.837 478.329 390.934 478.329 431.8C478.329 494.7 471.979 559.4 471.979 622.3C471.979 667.353 471.979 713.772 471.979 758.825"><title>뒤옆선</title></path>
<path d="M752.173 758.825C640.095 758.825 584.056 758.825 471.979 758.825"><title>뒤밑단</title></path>
</g>
<g id="mark" fill="none" stroke="#111" stroke-width="0.21">
<path d="M654.865 34.561L648.702 36.088"><title>뒤어깨이세</title></path>
<path d="M644.223 244.475C644.223 268.605 644.223 280.67 644.223 304.8C644.223 355.6 644.223 381 644.223 431.8C644.223 562.624 641.365 628.015 639.46 758.825"><title>뒤사이바</title></path>
<path d="M759.316 152.4C675.026 152.4 627.235 196.405 548.973 165.1"><title>뒤요크선</title></path>
</g>
<text x="471.979" y="15.24" font-size="7.62" font-family="sans-serif" fill="#444">body · 뒤판 — 헌팅 자켓 몸판</text>
</g>
<g id="sleeve · 큰소매">
<g id="outline" fill="none" stroke="#111" stroke-width="0.35">
<path d="M819.954 184.625C819.954 164.627 813.766 147.423 829.919 135.633C890.323 91.54 906.143 25.4 980.928 25.4"><title>뒤소매산</title></path>
<path d="M980.928 25.4C1037.092 25.4 1045.093 79.991 1087.87 116.386C1121.905 145.342 1168.076 149.464 1168.076 194.15"><title>앞소매산</title></path>
<path d="M1168.076 194.15C1157.86 255.372 1155.589 268.977 1145.373 330.2C1127.014 440.214 1122.935 464.661 1104.576 574.675"><title>큰소매앞절개</title></path>
<path d="M819.954 184.625C833.476 250.134 839.255 264.179 850.003 330.2C867.845 439.796 868.401 464.661 883.454 574.675"><title>큰소매뒤절개</title></path>
<path d="M883.454 574.675L1104.576 574.675"><title>큰소매밑단</title></path>
</g>
<text x="818.848" y="15.24" font-size="7.62" font-family="sans-serif" fill="#444">sleeve · 큰소매 — 두 장 소매</text>
</g>
<g id="sleeve · 작은소매">
<g id="outline" fill="none" stroke="#111" stroke-width="0.35">
<path d="M1222.364 34.925C1222.364 42.863 1214.427 50.8 1222.364 50.8C1253.634 50.8 1250.939 38.1 1279.514 25.4"><title>작은소매위선</title></path>
<path d="M1222.364 34.925L1222.364 415.45"><title>작은소매앞</title></path>
<path d="M1279.514 25.4L1279.514 415.45"><title>작은소매뒤</title></path>
<path d="M1222.364 415.45L1279.514 415.45"><title>작은소매밑단</title></path>
</g>
<text x="1218.876" y="15.24" font-size="7.62" font-family="sans-serif" fill="#444">sleeve · 작은소매 — 두 장 소매</text>
</g>
<g id="collar">
<g id="outline" fill="none" stroke="#111" stroke-width="0.35">
<path d="M1330.314 73.025C1357.901 73.025 1386.324 73.025 1413.911 73.025C1462.249 73.025 1500.184 68.852 1533.245 53.975"><title>목둘레선</title></path>
<path d="M1533.245 53.975C1533.245 46.641 1533.245 39.084 1533.245 31.75C1533.245 26.811 1531.834 25.4 1526.895 25.4"><title>앞끝</title></path>
<path d="M1526.895 25.4C1459.208 38.937 1399.341 41.275 1330.314 41.275"><title>윗선</title></path>
</g>
<g id="construction" fill="none" stroke="#888" stroke-width="0.21" stroke-dasharray="1.4,1.0499999999999998">
<path d="M1330.314 73.025L1520.545 73.025"><title>밑변기준</title></path>
</g>
<g id="mark" fill="none" stroke="#111" stroke-width="0.21">
<path d="M1520.545 73.025L1520.545 26.987"><title>앞중심표시</title></path>
</g>
<g id="fold" fill="none" stroke="#111" stroke-width="0.35" stroke-dasharray="2.8,1.4">
<path d="M1330.314 73.025L1330.314 41.275"><title>뒤중심</title></path>
</g>
<text x="1330.314" y="15.24" font-size="7.62" font-family="sans-serif" fill="#444">collar — 스탠 칼라</text>
</g>
</svg>