<svg xmlns="http://www.w3.org/2000/svg" width="2072.444mm" height="844.55mm" viewBox="0 0 2072.444 844.55">
<rect width="100%" height="100%" fill="white"/>
<g id="body · 앞판">
<g id="outline" fill="none" stroke="#111" stroke-width="0.35">
<path d="M101.6 25.4C98.949 35.787 98.402 58.707 81.394 75.044C72.808 83.292 42.663 95.25 25.4 95.25"><title>앞목선</title></path>
<path d="M101.6 25.4L267.128 67.64"><title>앞어깨선</title></path>
<path d="M267.128 67.64C260.479 93.696 266.7 175.204 266.7 202.095C266.7 238.062 266.24 284.113 286.906 316.344C294 327.409 306.299 339.725 320.675 339.725"><title>앞암홀</title></path>
<path d="M25.4 95.25L25.4 819.15"><title>앞중심선</title></path>
<path d="M320.675 339.725C320.675 372.205 320.675 405.67 320.675 438.15C320.675 501.015 320.675 565.785 320.675 628.65C320.675 691.515 320.675 756.285 320.675 819.15"><title>앞옆선</title></path>
<path d="M25.4 819.15L320.675 819.15"><title>앞밑단</title></path>
</g>
<g id="mark" fill="none" stroke="#111" stroke-width="0.21">
<path d="M114.3 95.25L114.3 819.15"><title>안단</title></path>
</g>
<text x="25.4" y="15.24" font-size="7.62" font-family="sans-serif" fill="#444">body · 앞판 — 오버사이즈 블라우스 몸판</text>
</g>
<g id="body · 뒤판">
<g id="outline" fill="none" stroke="#111" stroke-width="0.35">
<path d="M577.85 25.4C578.72 29.353 587.773 38.555 591.32 40.505C602.462 46.629 631.801 50.8 654.05 50.8"><title>뒤목선</title></path>
<path d="M404.812 63.5C410.91 91.191 400.05 168.733 400.05 198.438C400.05 222.806 399.832 288.228 386.159 319.484C382.549 327.734 376.878 336.55 371.475 336.55"><title>뒤암홀</title></path>
<path d="M654.05 50.8C654.05 163.894 644.525 220.281 644.525 333.375C644.525 374.015 644.525 394.335 644.525 434.975"><title>뒤중심선</title></path>
<path d="M644.525 434.975L644.525 815.975"><title>뒤중심선아래</title></path>
<path d="M577.85 25.4L404.812 63.5"><title>뒤어깨선</title></path>
<path d="M371.475 336.55C371.475 369.03 371.475 402.495 371.475 434.975C371.475 497.84 371.475 562.61 371.475 625.475C371.475 688.34 371.475 753.11 371.475 815.975"><title>뒤옆선</title></path>
<path d="M644.525 815.975L371.475 815.975"><title>뒤밑단</title></path>
</g>
<g id="mark" fill="none" stroke="#111" stroke-width="0.21">
<path d="M540.641 33.593L534.44 34.958"><title>뒤어깨이세</title></path>
</g>
<g id="fold" fill="none" stroke="#111" stroke-width="0.35" stroke-dasharray="2.8,1.4">
<path d="M612.775 50.8L644.525 815.975"><title>뒤중심턱</title></path>
</g>
<text x="371.475" y="15.24" font-size="7.62" font-family="sans-serif" fill="#444">body · 뒤판 — 오버사이즈 블라우스 몸판</text>
</g>
<g id="sleeve">
<g id="outline" fill="none" stroke="#111" stroke-width="0.35">
<path d="M704.85 195.263C753.873 177.531 766.763 146.133 770.715 142.997C778.125 137.117 835.669 25.4 918.911 25.4"><title>뒤소매산</title></path>
<path d="M918.911 25.4C1002.586 25.4 1044.573 117.611 1051.187 122.464C1056.147 126.104 1082.881 190.537 1150.394 195.263"><title>앞소매산</title></path>
<path d="M704.85 195.263L736.6 504.825"><title>뒤옆선</title></path>
<path d="M1150.394 195.263L1118.644 504.825"><title>앞옆선</title></path>
<path d="M736.6 504.825C796.763 507.968 858.666 514.35 918.911 514.35C984.898 514.35 1052.732 507.968 1118.644 504.825"><title>소매부리</title></path>
</g>
<g id="construction" fill="none" stroke="#888" stroke-width="0.21" stroke-dasharray="1.4,1.0499999999999998">
<path d="M918.911 25.4L918.911 514.35"><title>소매중심선</title></path>
<path d="M704.85 195.263L1150.394 195.263"><title>소매통선</title></path>
<path d="M713.479 279.4L1141.765 279.4"><title>팔꿈치선</title></path>
<path d="M861.761 25.4L969.711 25.4"><title>소매산높이선</title></path>
<path d="M918.911 25.4L704.85 195.263"><title>뒤사선</title></path>
<path d="M918.911 25.4L1150.394 195.263"><title>앞사선</title></path>
<path d="M861.761 25.4L730.25 195.263"><title>뒤가이드</title></path>
<path d="M969.711 25.4L1112.294 195.263"><title>앞가이드</title></path>
<path d="M704.85 195.263L704.85 514.35"><title>뒤틀세로</title></path>
<path d="M1150.394 195.263L1150.394 514.35"><title>앞틀세로</title></path>
<path d="M704.85 514.35L1150.394 514.35"><title>밑단틀</title></path>
</g>
<g id="mark" fill="none" stroke="#111" stroke-width="0.21">
<path d="M713.479 279.4L719.829 279.4"><title>뒤팔꿈치표시</title></path>
<path d="M1141.765 279.4L1135.415 279.4"><title>앞팔꿈치표시</title></path>
</g>
<text x="704.85" y="15.24" font-size="7.62" font-family="sans-serif" fill="#444">sleeve — 소매 원형</text>
</g>
<g id="band">
<g id="outline" fill="none" stroke="#111" stroke-width="0.35">
<path d="M1201.194 69.85C1229.077 69.85 1257.805 69.85 1285.687 69.85C1338.038 69.85 1378.27 60.562 1414.075 44.45"><title>목둘레선</title></path>
<path d="M1414.075 44.45C1414.075 42.354 1414.075 40.195 1414.075 38.1C1414.075 28.222 1411.253 25.4 1401.375 25.4"><title>앞끝</title></path>
<path d="M1401.375 25.4C1332.457 39.184 1271.477 41.275 1201.194 41.275"><title>윗선</title></path>
</g>
<g id="construction" fill="none" stroke="#888" stroke-width="0.21" stroke-dasharray="1.4,1.0499999999999998">
<path d="M1201.194 69.85L1400.688 69.85"><title>밑변기준</title></path>
</g>
<g id="mark" fill="none" stroke="#111" stroke-width="0.21">
<path d="M1400.688 69.85L1400.688 28.575"><title>앞중심표시</title></path>
</g>
<g id="fold" fill="none" stroke="#111" stroke-width="0.35" stroke-dasharray="2.8,1.4">
<path d="M1201.194 69.85L1201.194 41.275"><title>뒤중심</title></path>
</g>
<text x="1201.194" y="15.24" font-size="7.62" font-family="sans-serif" fill="#444">band — 셔츠 칼라밴드</text>
</g>
<g id="collar">
<g id="outline" fill="none" stroke="#111" stroke-width="0.35">
<path d="M1464.875 101.6C1563.945 101.6 1603.85 101.062 1662.869 93.98"><title>밑변</title></path>
<path d="M1662.869 93.98L1681.919 36.83"><title>앞변</title></path>
<path d="M1681.919 36.83C1595.089 32.489 1551.813 25.4 1464.875 25.4"><title>윗선</title></path>
</g>
<g id="notch" fill="none" stroke="#111" stroke-width="0.35">
<path d="M1555.401 101.6L1555.401 95.25"><title>늘림표시1</title></path>
<path d="M1606.201 101.6L1606.201 95.25"><title>늘림표시2</title></path>
</g>
<g id="fold" fill="none" stroke="#111" stroke-width="0.35" stroke-dasharray="2.8,1.4">
<path d="M1464.875 101.6L1464.875 25.4"><title>뒤중심</title></path>
</g>
<text x="1464.875" y="15.24" font-size="7.62" font-family="sans-serif" fill="#444">collar — 셔츠 칼라</text>
</g>
<g id="cuff">
<g id="outline" fill="none" stroke="#111" stroke-width="0.35">
<path d="M1732.719 25.4L1970.844 25.4L1970.844 76.2L1732.719 76.2L1732.719 25.4"><title>외곽</title></path>
</g>
<g id="construction" fill="none" stroke="#888" stroke-width="0.21" stroke-dasharray="1.4,1.0499999999999998">
<path d="M1739.069 50.8L1942.269 50.8"><title>단추선</title></path>
</g>
<g id="notch" fill="none" stroke="#111" stroke-width="0.35">
<path d="M1851.781 76.2L1851.781 69.85"><title>중심노치</title></path>
</g>
<text x="1732.719" y="15.24" font-size="7.62" font-family="sans-serif" fill="#444">cuff — 커프스</text>
</g>
<g id="placket">
<g id="outline" fill="none" stroke="#111" stroke-width="0.35">
<path d="M2021.644 34.925L2034.344 25.4L2047.044 34.925L2047.044 136.525L2021.644 136.525L2021.644 34.925"><title>외곽</title></path>
</g>
<g id="mark" fill="none" stroke="#111" stroke-width="0.21">
<path d="M2034.344 39.688L2034.344 117.475"><title>절개</title></path>
</g>
<text x="2021.644" y="15.24" font-size="7.62" font-family="sans-serif" fill="#444">placket — 견보루</text>
</g>
</svg>